<?xml version="1.0" encoding="UTF-8"?>
<svg id="Capa_1" data-name="Capa 1" xmlns="http://www.w3.org/2000/svg" xmlns:xlink="http://www.w3.org/1999/xlink" viewBox="0 0 777.05 1448.35">
  <defs>
    <linearGradient id="Degradado_sin_nombre_93" data-name="Degradado sin nombre 93" x1="45.81" y1="617.42" x2="43.89" y2="809.41" gradientTransform="translate(238.55 320.95) scale(1.21)" gradientUnits="userSpaceOnUse">
      <stop offset="0" stop-color="#f4d7e6"/>
      <stop offset=".08" stop-color="#fd41f1"/>
      <stop offset=".12" stop-color="#fd11eb"/>
      <stop offset=".43" stop-color="#fb107a"/>
      <stop offset=".87" stop-color="#fde413"/>
      <stop offset="1" stop-color="#fb5716"/>
    </linearGradient>
    <linearGradient id="Degradado_sin_nombre_94" data-name="Degradado sin nombre 94" x1="261.09" y1="567.15" x2="262.88" y2="631.12" gradientTransform="translate(238.55 320.95) scale(1.21)" gradientUnits="userSpaceOnUse">
      <stop offset="0" stop-color="#fc18f5"/>
      <stop offset=".34" stop-color="#fb1079"/>
      <stop offset="1" stop-color="#f81c20"/>
    </linearGradient>
    <linearGradient id="Degradado_sin_nombre_96" data-name="Degradado sin nombre 96" x1="120.56" y1="-24.07" x2="119.21" y2="179.93" gradientTransform="translate(238.55 320.95) scale(1.21)" gradientUnits="userSpaceOnUse">
      <stop offset="0" stop-color="#fdc8e9"/>
      <stop offset=".09" stop-color="#fd15f2"/>
      <stop offset=".22" stop-color="#fb107f"/>
      <stop offset=".68" stop-color="#fde211"/>
      <stop offset="1" stop-color="#fe2215"/>
    </linearGradient>
  </defs>
  <path d="M177.88,712.94c2.63.65,4.19,2.14,6.12,2.47,1.5,2.3,3.58,3.94,6.19,4.87.41.15.93.72,1.25,1.03.99.97,1.32,2.78,2.43,3.64,1.51,5.95,2.96,10.9,3.88,15.99.17.96,0,2.29-.11,3.26-1.36.31-.65,2.04-.99,2.92-2.54,14.23-14.67,22.42-27.73,22.86s-25.37-7.46-28.82-20.46c-.36-.82.31-2.65-1.13-2.75-.79-4.63-.65-8.33.03-11.96,1.84-3.79,2.86-6.94,3.81-10.12,3.14-1.96,5.24-5.18,7.43-8.04,4.84-1.34,8.66-2.59,12.07-4.8,5.95.06,10.89-.08,15.57,1.08Z" style="fill: #212121;"/>
  <path d="M104.95,1.16l4.14.02,97.98.04c.48,1.61-.32,3.84,1.23,5.03.25.56-.34,1.61,0,2.1-1.26,1.56-1.26,4.85,0,6.4.44,5.48-.72,11.21,0,16.66-1.69,3.75-1.69,8.75,0,12.49-.79,1.45,0,4.12,0,5.72-1.08.66-1.08,3.34,0,3.99,0,2.46.98,5.82-.01,8.16-1.41,3.34-1.09,9.5,0,12.48.39,1.06.3,3.43,0,4.52-.96,3.34-1.82,10.06,0,13.69.3,6.9-.81,13.78.37,21.1l115.91-.11-.49-110.78,2.44-1.53,117.71-.18-.6,112.51h116.76s.06-111.03.06-111.03l1.78-1.3,117.65-.21-.58,112.54,72.29-.13.22,118.13-72.25-.06.32,128.6-65.64-.34c-1.94-7.64-1.89-16.15-7.29-22.09-.79-.87-1.37-2.07-2.28-2.82-.88-1.81-2.22-3.11-3.61-4.52l-3.75-3.79-4.06-3.27c-4.23-3.4-8.5-6.8-13.14-9.64-1.06-2.17-2.57-4-4.75-5.12-.45-.23-.91-.7-1.27-1.06-1.29-1.07-2.03-2.88-3.39-3.9-1.28-2.42-2.15-6.28-4.89-7.63-1.06-3.41-2.98-6.46-5.26-9.18l-.54-55.36-114.34-.21c-.34-.34-1.33-.36-1.97-.32-.45.03-.8.7-.76,1.58.02.44.16.91.94.89l-.15,38.78c-15.05-15.92-34.42-24.61-56.22-17.06-22.16-7.56-45.76,2.17-58.15,21.61,16.59-14.88,30.15-27.97,54.4-20.61-6.69,5.46-15.04,7.75-17.56,16.13,11.06-12.17,24.33-18.84,40-17.96s27.51,9.29,37.38,21.6c2.34,2.92,5.68,25.8,20.17,24.51-4.92,12.05-5.42,24.88,2.78,35.25,17.68,22.36,37.54,4.62,48.15,12.12,12.28,8.68,2.35,18.58,13.37,35.18,8.49,12.8-10.85,21.82,1.36,42.19,1.74,2.91,3.02,5.67,3.43,8.61-1.93,4.51-5.43,7.48-8.65,11.93-7.26,10.04-7.34,26.6,4.64,33.23,22.73,12.57,36.27,39.23,26.09,64.56-6.43,16.02-5.04,36.5,10.65,46.79,13.18,8.65,21.69,20.84,20.56,37.64-3.36,49.88,15.99,54.43,10.97,82.43-14.74,4.17-26.41,16.46-25.47,31.99-.3.02-.65-.17-.93-.1-.82.21-1.55.62-2.44.91-.65.21-1.02.41-.41,1.22-14.96,5.48-31.59-3.35-39.5,14.11-5.07,11.2-13.24,22.24-24.65,27.21-18.93,8.25-39.27,6.64-56.96-3.7-2.19-2.18-5.45-5.76-3.05-9.26,15.04-21.96,15.46-50.52.35-71.86,9.17-11.18,25.22-14.99,40.17-13.53,16.39,1.59,30.43-7.73,32.37-24.78,1.52-13.4-1.5-30.4-12.38-39.79-29.18-25.18-4.78-38.91-25.69-50.84s-23.28-32.8-40.63-49.85l2.65-5.92c25.05-56.05-6.82-73.89-7.08-78.48-.09-1.65,1.18-2.99,2.22-4.23,17.71-12.7,29.82-6.14,31.21-18.17.88-7.62,3.52-13.83,8.13-19.93s3.43-18.28-4.67-19.11l-21.1-2.19c.38-11.06,2.13-21.84-.06-32.62-8.28-40.73-51.78-63.05-91.5-46.7.66-9.13,5.38-15.25,8.9-22.8-9.43,3.95-6.25,16.46-11.66,22.45-7.16,7.93-17.09,12.25-23.55,20.34-6.51,8.16-10.7,16.29-12.34,26.71-1.78,11.23-1.28,22.36-.04,33.84-5.55.38-12.22-1.37-17.54,2.19-5.76,3.85-5.56,13.22-1.6,18.43,11.35,14.94,4.04,25.48,15.77,27.91,8.05,1.67,15.23,4.53,22.73,8.66-3.65,4.21-6.33,8.99-9.55,13.37-17.58,23.9-13.7,56.44,3.95,79.98-4.73,7.31-10.4,14.13-14.68,22.28-14.6,27.77-33.45,22.47-31.9,42.04,1.12,14.15-5.4,23.73-15.01,32.83-10.09,9.55-13.66,25.98-12.19,39.29,1.86,16.84,15.92,26.87,32.1,25.08,14.67-1.62,28.94,2.85,39.16,12.46-.05,3.9-1.99,6.93-3.73,11.06-7.58,17.92-7.58,41.11,3.71,56.7,1.17,2.93,3.31,6.06,1.53,9.33-1.35,2.48-4.08,5.05-6.59,6.75-17.67,9.61-39.24,10.08-56.93.13-9.64-5.43-16.3-15.34-20.9-25.36-8.77-19.11-25.04-5.73-47.1-17.66-1.5-5.57-1.59-11.95-6.32-15.6-.28-1.11-1.56-1.98-2.43-3.64-.23-.45-.99-.59-1.25-1.03-1.22-2-2.83-4.3-6.19-4.87-1.14-1.75-3.19-2.8-4.89-3.89-2.95-11.87-.25-22.99,4.34-34.6,16.03-40.54-7.65-64.98,25.84-86.13,14.37-9.08,18.69-28.49,12.37-44.08-10.19-25.13-.78-53.03,22.92-66.15,12.56-6.95,15.47-21.77,7.55-33.96-2.68-4.12-6.51-7.42-8.48-11.74,6.58-14.58,13.69-20.28,4.74-40.16-2.01-4.46.16-9.43,1.37-13.39,7.37-5.43,4.77-16.45,8.45-29.35,4.33-3.8,9.77-8.28,16.09-6.38,13.56,4.08,26.75.99,35.44-9.38,8.63-10.3,8.32-24.02,3.2-36.33,6.48-.1,11.2-5.44,12.5-11.81.65-3.17,5.44-5.45,4.19-10.09-3.37.48-1.17,6.01-4.79,5.02l-.72-51.65-114.14-.22c-.33-.36-1.43-.35-1.96-.33-.49.02-.83.85-.76,1.6.05.46.27.94,1.03.95l.19,66.76c-1.76,2.05-2.71,4.58-3.89,6.98-4.03,2.77-7.76,5.87-10.48,9.99-8.32,3.49-15.86,9.18-21.08,16.52-7.2,6.43-8.97,16.57-9.76,26.03l-74.53.32.23-128.23-48.35-.5-.15-117.98,48.58.06-.16-111.96c6.16-1.03,11.06-.2,16.06-.17Z" style="fill: #212121;"/>
  <path d="M46.94,479.67c.22.73,1.14,1.66,1.31,2.44.9,4.14,2.41,8.07,5.63,10.85.45,2.41.92,4.36,2.7,6.13,3.09,9.93,7.81,20.07,14.21,28.26l89.46,182.67c-3.55,1.83-7.53,3.38-10.02,6.63-3.49.97-6.16,3.81-7.43,8.04-3.51,2.19-4.91,5.83-5.07,9.97-3.92,1.07-7.1,3.87-11.66,4.81l-102.32-207.36c-1.41-2.85-2.61-5.22-4.84-7.52-.43-2.57-1.44-5.52-3.59-7.22-.96-4.92-3.18-9.25-7.33-12.27-.73-1.92-1-4.42-2.45-6,.22-1.79-2.77-5.97-.1-7.22,10.56-4.97,21.17-9.31,31.28-15.48,2.01-1.23,4.45-1.7,6.32-.94,1.72.7,2.8,2.64,3.89,4.23Z" style="fill: #212121;"/>
  <path d="M405.33,546.58c28.52,7.73,48.58,33.94,48.07,63.36-.51,29.58-20.47,54.53-50.31,62.44,16.2,6.09,31.63,13.9,40.1,28.22,16.2,27.39,14.27,62.76-9.62,82.8-.5.35-.93,1.01-1.49,1.25-2.46,1.03-4.29,2.79-5.98,4.77-28.46,18.21-58.73,13.17-83.97-7.53-.81-1.01-1.64-2.56-2.69-3.32-1.06-3.47-7.05-8.15-9.26-11.19-9.1-22.74-9.01-46.23,3.41-67.55.37.02.74-.28,1.11-.3l2.58-2.52c10.63-10.41,21.75-19.54,37.33-24.4-16.73-5.18-29.45-13.44-39.8-26.97-16.77-21.92-15.78-53.94,1.52-75.29,9.98-11.04,20.77-20.06,34.57-23.03,2.59-.56,5.26-.8,7.64-2.07,8.96,0,18.08-1.02,26.79,1.34Z" style="fill: #212121;"/>
  <path d="M267.96,786.11c10.39-2.27,23.66,14.51,36.25,5.75,3.39-2.35,12.37-1.75,16.13-.21,4.85,4.43,15.43,11.8,20.03,17.29,10.65,12.73,12.73,27.28,15.02,42.46.45,3.01-1.32,6.35-1.01,9.39-1.39.27-.66,2.03-1,2.9-4.63,31.44-36.71,54.19-69.5,54.02,23.22,13.44,36.1,35.47,35.91,60.41-.19,24.23-13.38,46.8-34.96,58.15-22.75,11.97-46.23,9.11-69-1.87-1.19-1.76-3.28-2.12-4.62-3.5-6.51-6.71-13.65-12.98-17.34-21.66l-1.04-2.44c-.27-.64-.42-1.07-1.22-.34l-2.96-10.38c-.24-.85.35-2.69-1.1-2.77.17-.63.01-1.45-.11-2.1-.18-.91.3-2.59-.96-2.93-4.44-27.48,8.91-56.52,33.91-69.03,3.82-1.91,9.31-1.86,11.44-5.74,7.71-1.77,15.56-2.8,23.86-3.61-24.88-13.9-39.03-39.73-35.37-68.13,3.18-24.7,21.71-49.97,47.65-55.65Z" style="fill: #212121;"/>
  <path d="M339.44,778.56c.31,1.02,1.86,2.64,2.69,3.32,12.81,15.96,33.25,21.15,54.96,20.86-6.96,9.61-4.47,21.46-8.85,29.16-6.28,11.06-19.88,15.91-31.31,19.08,4.59-22.94-19.54-52.29-36.59-59.32-.73-.67-3.42-2.67-2.23-3.47l7.02-4.74c7.14-3.88,10.4-7.71,14.31-4.88Z" style="fill: #212121;"/>
  <path d="M446.73,781.82c18.78,15.71,36.84,12,58.21,6.26,16.01,15.14,23.6,37.01,19.74,60.01-3.35,19.93-15.76,37.9-36.48,48.16,27.13-.16,49.96,12.4,62.22,33.28,13.88,23.64,11.6,49.96-1.82,72.45-4.83-.77-10.02,4.16-14.52,5.91-8.98,3.5-15.23,11.9-19.68,20.32l-17.88,2.54c-2.91-1.49-7.1-1.46-10,.04-29.7-2.51-54.24-23.59-60.42-52.05-6.61-30.45,6.78-59.21,34.5-74.91-41.66.63-72.69-32.23-70.1-71.81.52-8.01,3.94-16.16,6.19-24.12,3.53-12.52,18.7-6.03,29.42-18.49,2.25-1.44,5.25-1.59,5.98-4.77l1.49-1.25c2.14-1.51,4.11-4.17,6.57-4.65,2.6-.5,4.59,1.91,6.58,3.07Z" style="fill: #212121;"/>
  <path d="M310.42,299.91c6.39,10.95,5.41,25.47-1.45,34.27-8.76,11.24-20.71,13.11-33.72,9.49-7.01-1.95-15.23,1.92-17.05,8.28-.94.82-3.43,1.98-3.43,4.08.01,9.13-2.54,17.1-5.02,25.28-4.42,3.26-5.6,8.49-2.97,14.57,4.89,11.27,5.36,28.81-5.55,37.5-8.61,6.85-18.6,11.01-21.2,24.35-1.64,8.44-9.21,15.75-15.83,18.75-23.31,10.58-29.37-12.07-47.21.28-9.49,6.57-19.81,12.28-27.55,21.07-8.79,9.97-20.05,14.1-32.58,18.47l-25.25,8.81c-6.71-7.78-7.84-18.86-15.05-26.01-.62-1.99-1.01-4.67-2.7-6.13-.77-4.11-2.71-7.9-5.63-10.85-.61-.62-.81-1.72-1.31-2.44-.61-2.06-1.51-8.33-3.58-7.41l-35.48,15.78c-2.42,1.08-5.17,2.27-5.85,4.6-.77,2.61,1.83,4.61,3.52,6.45-.28,2.28,2.07,4.08,2.45,6,.96,4.94,3.35,9.11,7.33,12.27.43,2.22,2,5.58,3.59,7.22l.96,5.77C6.34,524.24-.28,510.55,0,495.78c.67-33.68,28.86-32.38,54.39-59.52,25.02-26.6,41.09-8.68,68.51-25,15.41-9.18,34.52-6.78,46.69,6.41,3.99,4.32,9.95,5.58,14.88,3.72,5.35-2.02,8.02-7.15,8.11-12.66s-3.21-8.98-8.08-12.25c-12.45-8.36-21.11-21.74-20.04-36.81.58-8.2,3.3-19.46,8.55-26.08,5.29-6.68,16.24-9.21,21.08-16.52,4.63-1.94,8.25-5.44,10.48-9.99,2.46-1.69,5.02-4.43,6.23-7.19,19.19-43.65,91.68-13.52,99.6.04Z" style="fill: #212121;"/>
  <path d="M558.59,286.82c2.82,2.35,3.52,7.23,7.21,9.04.93,3,2.36,5.72,4.89,7.63.8,1.51,2.19,2.73,3.39,3.9l1.27,1.06c.65,2.58,2.67,3.84,4.75,5.12,2.54,5.2,7.91,7.63,13.14,9.64,1.38.53,2.83,2.38,4.06,3.27,1.36.98,2.6,2.56,3.75,3.79,1.32,1.4,2.09,3.26,3.61,4.52.52,1.06,1.69,1.79,2.28,2.82,1.15,7.97,5.22,15.2,5.16,23.31l-.04,4.62c-.9-.26-1.62.66-1.47,1.62.06.4.36.83.99.85-5.26,31.72-35.95,29.38-23.69,48.61,3.01,4.73,11,8.65,16.26,3.33,12.39-12.52,29.76-19.12,46.25-10.23,34.55,18.62,47.77.43,71.76,25.2,22.3,23.02,42.15,26.27,48.8,40.99.87,1.93,1.34,4.12,3.35,5.28.14,1.41.33,2.89.62,4.28.21,1.01.25,3.02,1.67,3.09l.23,3.31-42.94-20.82-27.38,54.92c-25.74-13.1-40.03-7.97-58.67-27.69-9.03-9.56-19.98-16.63-31.26-23.35-4.71-2.8-10.53-2.65-15.48.29-15.17,9.01-37.26,2.2-41.93-15.4-3.84-14.49-13.45-19.84-23.88-27.9-9.47-7.32-8.32-25.06-4.79-33.81,2.87-7.11,2.01-11.43-1.59-16.86-7.83-11.8-1.11-26.59-12.23-34.41-13.4-9.42-34.28,8.66-49.63-13.53-6.77-9.79-6.57-23.24.17-33.36,10.75-16.15,40.35-20.57,58.87-22.6,12.11-1.33,23.48,1.98,32.47,9.48Z" style="fill: #212121;"/>
  <path d="M215.83,1034.39c2.27,3.35,6.43,4.97,10.51,6.67,19.28,7.99,39.58,5.52,58.41-1.67,5.47,8.62,6.65,18.84,6.11,28.96-23.9,1.09-47.51,13.8-59.12,35.45-13.76-3.47-24.35-15.63-28.3-27.6-5.22-15.83-1.96-31.32,7.75-42.76,1.42.58,3.25.3,4.63.97Z" style="fill: #212121;"/>
  <path d="M537.68,1090.68c22.81,8.79,46.62.75,59.59-19.86,31.23,4.47,54.87,31.66,56.06,62.75s-18.97,60.18-52.32,69.07c31.67,8.52,52.35,34.6,52.34,65.85s-21.34,59.11-53.09,65.43l-.04,59.13,91.06-.4-.11,47.58-146.58-.12-.19-47.19,14.02-.4-.29-89.54c-2.59,8.17.04,16.48-1.34,25.88-26.28-13.21-40.77-40.38-36.99-69.53,3.49-26.96,23.34-49.12,51.67-56.66-24.38-6.63-41.72-23.36-48.59-43.92-8.29-24.8-2.29-50.59,14.8-68.06Z" style="fill: #212121;"/>
  <path d="M290.87,1068.34c9.29-.42,19.62,3.45,28.14,6.2,3.14,3.06,6.93,5.13,11.25,7.55l-2.86,4.31c3.87,2.52,7.12,4.43,10.02,7.53-1.42,1.02-3.47.57-3.67,2.65,4.05-.42,6.49-3.2,9.61-4.66,12.15,12.49,18.04,29.01,17.37,47.19-.38,10.52-1.5,20.88-7.55,29.08l-2.66,3.64c-8.16,15.82-24.81,24.54-42.57,31,26.87,7.46,49.35,28.02,52.23,56.03,1.96,19.1-1.62,38.69-14.46,51.31.44-1.6,2.01-3.26.22-5.13-11.79,7.36-15.9-4-26.6,2.98l-1.05-3c-.48-1.38-1.72-.28-2.59.28.02-.65-.03-1.77-.34-2.33l.44-10.27c-15.87.86-31.12.84-47.13.02l.54,12.64c.83,3.31-22.59,1.44-24.36,1.11-2.1-.39-2.94,4.93-3.47,6.21-1.64-1.62-2.27-4.22-3.79-5.92l-2.41-2.7c-14.11-21.7-13.4-53.42,2.35-73.92,1.44-1.49,2.7-3.13,3.77-4.91,8.76-11.39,21.24-18.19,35.45-22.41-5.71-2.6-10.62-3.74-14.95-6.62l-3.66-2.43c-13.59-9.04-26.42-21.98-30.81-39.67-3.69-14.87-3.25-36.05,4.4-50.32,11.61-21.65,35.21-34.36,59.12-35.45Z" style="fill: url(#Degradado_sin_nombre_93);"/>
  <path d="M761.25,519.74c-4.23,3.39-3.9,7.77-6.14,12.14-10.42,20.41-21.4,40.68-30.52,61.68-1.03-.87-1.26.48-1.52,1.13-.21.53-.39,1.09-.67,1.65l-57.08,115.42c-4.75,9.61-11,17.5-14.62,27.95-7.36-2.34-11.72-6.72-18.19-7.84-2.58-4.52-5.36-9.34-9.24-12.95.33,5.38,6.7,8.88,7.61,13.46,3.51,17.76-6.18,34.72-24.76,37.31-16.03,2.23-32.77-10.06-33.05-27.61-.24-15.11,10.63-26.12,24.29-30.33,3.69-1.14,8.47,1.75,11.98.87.13,1.28,1.83,1.01,2.68,1.24.65.17,1.41-.35,2.09-.25,2.07,1.68,3.72,4.85,7.47,3.87-1.32-2.67-4.27-2.66-6.34-3.82.57-3.96,2.23-7.55,4.28-11.59l42.38-83.75,45.11-90.38c8.77-17.58,18.85-34.64,27.49-54.12l38.85,18.83c-3.27,10.52-10.03,17.61-12.09,27.09Z" style="fill: #212121;"/>
  <path d="M776.98,494.22c.8,14.88-5.75,30.25-19.3,36.48,1.34-3.59,2.75-7.2,3.57-10.96,5.53-4.44,9.55-23.01,15.73-25.52Z" style="fill: #212121;"/>
  <path d="M312.94,1294.48l.32,40.07c.05,6.45-.67,13.11.15,20.25,4.14,1.48,8.03.17,12.74.95v71.93s-35.12.12-35.12.12l-.12-44.61c0-2.91-10.25-2.33-10.23.79l.25,64.36-55.45-.17-.16-113.07,41.85.19c2.14,0,3.26-1.63,3.24-3.03-.14-12.6.39-25.05-.56-38.33l43.07.54Z" style="fill: #212121;"/>
  <path d="M598.11,1065.17c-12.38,24.25-38.55,33.75-63.06,21.67-3.65-1.8-7.3-3.61-9.58-7.16l-1.14-1.36c-12.58-11.19-15.55-30.35-9.8-46.1,1.74-4.77,6.86-8.55,8.52-13.95,2.61,1.01,4.63,4,6.96,2.47,2.08-1.36-3.19-2.38-2.86-3.5.91-3.05,6.94-4.5,10.17-1.76.03-2.78-2.37-2.96-3.23-4.5.9-.9,2.32-1.25,1.93-1.77-.5-.65-1.58-1.05-1.94-1.32,4.5-1.75,9.68-6.68,14.52-5.91l11.58,1.85c14.99,2.39,27.48,8.4,34.63,19.69,8.22,12.97,9.3,28.45,3.29,41.66Z" style="fill: url(#Degradado_sin_nombre_94);"/>
  <path d="M345.72,1310.17c-1.81,1.78-2.56,4.71-4.79,6.19l-1.44,1.17c-6.55,5.47-13.78,9.95-21.69,13.15-4.23,5.19-2.14-23.42-2.09-25.38.86-.56,2.1-1.66,2.59-.28l1.05,3c10.7-6.98,14.81,4.38,26.6-2.98,1.79,1.87.22,3.53-.22,5.13Z" style="fill: #f82c17;"/>
  <path d="M269.22,1305.36v23.22c0,.9-.13,2.14-.52,2.44s-1.52-.2-1.94-.2c-9.92-3.9-17.82-10.72-25.37-18.14.54-1.28,1.37-6.6,3.47-6.21,1.76.32,25.19,2.2,24.36-1.11Z" style="fill: #f82c17;"/>
  <path d="M776.85,491.83l.13,2.38c-6.18,2.51-10.21,21.08-15.73,25.52,2.06-9.48,8.82-16.56,12.09-27.09l-38.85-18.83c-8.65,19.48-18.72,36.55-27.49,54.12l-.47-2.01,27.38-54.92,42.94,20.82Z" style="fill: #909090;"/>
  <path d="M757.68,530.7l-2.57,1.18c2.23-4.38,1.91-8.75,6.14-12.14-.82,3.76-2.23,7.37-3.57,10.96Z" style="fill: #909090;"/>
  <path d="M503.68,785.52c.59.68.61,1.95,1.26,2.57-21.37,5.74-39.43,9.44-58.21-6.26,17.68,10.34,38.02,11.95,56.96,3.7Z" style="fill: #909090;"/>
  <path d="M446.73,781.82c-1.99-1.16-3.98-3.57-6.58-3.07s-4.43,3.14-6.57,4.65c23.89-20.03,25.81-55.41,9.62-82.8l.84.09c15.11,21.34,14.69,49.9-.35,71.86-2.4,3.5.86,7.08,3.05,9.26Z" style="fill: #909090;"/>
  <path d="M333.6,699.82c-12.42,21.31-12.52,44.81-3.41,67.55-11.29-15.59-11.29-38.79-3.71-56.7,1.75-4.13,3.68-7.16,3.73-11.06l3.39.22Z" style="fill: #909090;"/>
  <path d="M325.13,783.44l-7.02,4.74c-1.19.8,1.5,2.81,2.23,3.47-3.75-1.55-12.74-2.15-16.13.21-12.6,8.76-25.87-8.02-36.25-5.75l.24-2.54c17.68,9.95,39.26,9.48,56.93-.13Z" style="fill: #909090;"/>
  <path d="M432.09,784.65c.56-.23.99-.9,1.49-1.25l-1.49,1.25Z" style="fill: #909090;"/>
  <path d="M432.09,784.65c-.73,3.18-3.73,3.33-5.98,4.77,1.7-1.98,3.53-3.73,5.98-4.77Z" style="fill: #909090;"/>
  <path d="M339.44,778.56c-3.92-2.83-7.18,1-14.31,4.88,2.51-1.69,5.24-4.26,6.59-6.75,1.78-3.27-.36-6.4-1.53-9.33,2.21,3.04,8.2,7.72,9.26,11.19Z" style="fill: #909090;"/>
  <path d="M356.93,850.98l-1.54.43c-2.3-15.17-4.37-29.73-15.02-42.46-4.6-5.49-15.18-12.86-20.03-17.29,17.06,7.03,41.18,36.38,36.59,59.32Z" style="fill: #909090;"/>
  <path d="M342.13,781.88c-.83-.68-2.38-2.3-2.69-3.32,1.05.76,1.88,2.31,2.69,3.32Z" style="fill: #909090;"/>
  <path d="M426.1,789.41c-10.71,12.46-25.89,5.97-29.42,18.49-2.24,7.96-5.66,16.1-6.19,24.12l-2.26-.12c4.38-7.71,1.89-19.56,8.85-29.16-21.71.29-42.15-4.89-54.96-20.86,25.24,20.7,55.51,25.74,83.97,7.53Z" style="fill: #909090;"/>
  <path d="M597.28,1070.82c-12.97,20.62-36.78,28.66-59.59,19.86l-2.63-3.83c24.51,12.08,50.68,2.58,63.06-21.67-.76,1.67-.23,3.92-.84,5.64Z" style="fill: #fc6653;"/>
  <path d="M284.83,1036.27l-.07,3.12c-18.83,7.19-39.13,9.66-58.41,1.67-4.08-1.69-8.24-3.31-10.51-6.67,22.76,10.99,46.24,13.84,69,1.87Z" style="fill: #909090;"/>
  <path d="M215.83,1034.39c-1.38-.66-3.21-.39-4.63-.97v-2.53c1.35,1.38,3.44,1.74,4.63,3.5Z" style="fill: #909090;"/>
  <path d="M343.36,1091.91c-3.12,1.46-5.56,4.24-9.61,4.66.2-2.07,2.25-1.62,3.67-2.65-2.9-3.1-6.15-5.01-10.02-7.53l2.86-4.31c-4.32-2.42-8.11-4.49-11.25-7.55,9.74,3.15,17.43,10.26,24.35,17.37Z" style="fill: #fc11dd;"/>
  <path d="M514.54,1032.23l-.13-4.01c4.46-8.42,10.7-16.83,19.68-20.32.36.27,1.44.67,1.94,1.32.4.52-1.03.87-1.93,1.77.86,1.54,3.26,1.71,3.23,4.5-3.23-2.73-9.26-1.29-10.17,1.76-.33,1.11,4.94,2.14,2.86,3.5-2.34,1.53-4.35-1.46-6.96-2.47-1.66,5.4-6.78,9.19-8.52,13.95Z" style="fill: #fc11dd;"/>
  <path d="M315.37,1302.98c-1.44-2.61.62-7-2.43-8.5l-43.07-.54c.95,13.28.42,25.73.56,38.33l-3.66-1.44c.42,0,1.54.51,1.94.2s.52-1.54.52-2.44v-23.22s-.54-12.64-.54-12.64c16,.82,31.25.84,47.13-.02l-.44,10.27Z" style="fill: #909090;"/>
  <path d="M597.09,710.18c-.09.5.3,1.07.26,1.58-13.66,4.21-24.53,15.22-24.29,30.33l-1.44.08c-.94-15.53,10.73-27.82,25.47-31.99Z" style="fill: #909090;"/>
  <path d="M315.37,1302.98c.31.56.36,1.68.34,2.33-.05,1.97-2.14,30.58,2.09,25.38-1.76.71-2.9,2.92-4.54,3.86l-.32-40.07c3.05,1.5.99,5.89,2.43,8.5Z" style="fill: #fc6653;"/>
  <path d="M210.83,299.87c-1.21,2.76-3.77,5.5-6.23,7.19,1.17-2.4,2.12-4.92,3.89-6.98l2.35-.21Z" style="fill: #909090;"/>
  <path d="M173.04,333.58c-5.25,6.62-7.96,17.88-8.55,26.08l-1.21-.06c.8-9.45,2.56-19.6,9.76-26.03Z" style="fill: #909090;"/>
  <path d="M194.11,317.06c-4.84,7.32-15.79,9.85-21.08,16.52,5.22-7.35,12.76-13.04,21.08-16.52Z" style="fill: #909090;"/>
  <path d="M204.59,307.06c-2.23,4.55-5.85,8.05-10.48,9.99,2.72-4.12,6.45-7.22,10.48-9.99Z" style="fill: #909090;"/>
  <path d="M614.24,359.68l-2.13,1.22c.06-8.1-4.01-15.34-5.16-23.31,5.4,5.94,5.35,14.45,7.29,22.09Z" style="fill: #909090;"/>
  <path d="M606.95,337.59c-.58-1.03-1.76-1.76-2.28-2.82.91.75,1.48,1.95,2.28,2.82Z" style="fill: #909090;"/>
  <path d="M604.67,334.77c-1.52-1.26-2.3-3.12-3.61-4.52,1.39,1.4,2.73,2.71,3.61,4.52Z" style="fill: #909090;"/>
  <path d="M601.06,330.26c-1.15-1.22-2.4-2.81-3.75-3.79l3.75,3.79Z" style="fill: #909090;"/>
  <path d="M597.31,326.47c-1.23-.89-2.68-2.74-4.06-3.27l4.06,3.27Z" style="fill: #909090;"/>
  <path d="M593.25,323.2c-5.23-2.01-10.6-4.44-13.14-9.64,4.64,2.84,8.91,6.23,13.14,9.64Z" style="fill: #909090;"/>
  <path d="M560.55,286.68c2.28,2.72,4.2,5.77,5.26,9.18-3.69-1.81-4.39-6.69-7.21-9.04l1.96-.14Z" style="fill: #909090;"/>
  <path d="M580.11,313.57c-2.08-1.27-4.1-2.54-4.75-5.12,2.18,1.12,3.69,2.95,4.75,5.12Z" style="fill: #909090;"/>
  <path d="M570.7,303.49c-2.54-1.91-3.96-4.62-4.89-7.63,2.74,1.35,3.61,5.21,4.89,7.63Z" style="fill: #909090;"/>
  <path d="M574.09,307.39c-1.2-1.18-2.59-2.39-3.39-3.9,1.36,1.03,2.1,2.83,3.39,3.9Z" style="fill: #909090;"/>
  <path d="M575.36,308.45l-1.27-1.06c.36.36.82.83,1.27,1.06Z" style="fill: #909090;"/>
  <path d="M193.87,724.96c-1.11-.86-1.43-2.67-2.43-3.64.87,1.66,2.15,2.53,2.43,3.64Z" style="fill: #909090;"/>
  <path d="M190.19,720.29c-2.62-.93-4.69-2.57-6.19-4.87,3.36.58,4.98,2.87,6.19,4.87Z" style="fill: #909090;"/>
  <path d="M200.19,740.56l-2.44.39c-.92-5.09-2.38-10.04-3.88-15.99,4.73,3.64,4.83,10.03,6.32,15.6Z" style="fill: #909090;"/>
  <path d="M184,715.42c-1.94-.33-3.49-1.82-6.12-2.47l1.23-1.42c1.7,1.1,3.74,2.14,4.89,3.89Z" style="fill: #909090;"/>
  <path d="M191.44,721.32c-.32-.31-.84-.88-1.25-1.03.26.43,1.02.58,1.25,1.03Z" style="fill: #909090;"/>
  <path d="M208.29,92.46c-1.82-3.63-.97-10.35,0-13.69,2.2,3.96,2.19,9.73,0,13.69Z" style="fill: #909090;"/>
  <path d="M208.3,74.26c-1.09-2.99-1.41-9.14,0-12.48,2.12,3.54,2.1,8.94,0,12.48Z" style="fill: #909090;"/>
  <path d="M208.31,43.9c-1.69-3.75-1.7-8.75,0-12.49.57,4.27,2.32,8.26,0,12.49Z" style="fill: #909090;"/>
  <path d="M231.83,913.5c-2.12,3.88-7.62,3.83-11.44,5.74,2.16-4.5,7.08-4.74,11.44-5.74Z" style="fill: #909090;"/>
  <path d="M496.52,1030.76c-4.41.63-5.85.39-10,.04,2.9-1.5,7.09-1.53,10-.04Z" style="fill: #909090;"/>
  <path d="M150.23,716.66c-2.19,2.86-4.29,6.08-7.43,8.04,1.26-4.23,3.94-7.07,7.43-8.04Z" style="fill: #909090;"/>
  <path d="M142.81,724.7c-.95,3.17-1.97,6.33-3.81,10.12-.39.05-.89-.25-1.26-.15.16-4.14,1.56-7.78,5.07-9.97Z" style="fill: #909090;"/>
  <path d="M162.31,711.86c-3.42,2.21-7.23,3.46-12.07,4.8,2.49-3.25,6.46-4.79,10.02-6.63.37.75,1.62,1.1,2.06,1.83Z" style="fill: #909090;"/>
  <path d="M632.5,731.88l-1.63.52c-.91-4.58-7.28-8.09-7.61-13.46,3.88,3.61,6.65,8.42,9.24,12.95Z" style="fill: #909090;"/>
  <path d="M48.25,482.11c-.17-.77-1.09-1.71-1.31-2.44.49.72.7,1.82,1.31,2.44Z" style="fill: #909090;"/>
  <path d="M23.76,532.12l-3.88-1.76-.96-5.77c2.23,2.31,3.44,4.67,4.84,7.52Z" style="fill: #909090;"/>
  <path d="M46.94,479.67c-1.08-1.58-2.17-3.53-3.89-4.23-1.87-.76-4.31-.29-6.32.94-10.11,6.17-20.72,10.51-31.28,15.48-2.67,1.26.33,5.43.1,7.22-1.68-1.84-4.28-3.84-3.52-6.45.68-2.33,3.43-3.52,5.85-4.6l35.48-15.78c2.07-.92,2.97,5.35,3.58,7.41Z" style="fill: #909090;"/>
  <path d="M56.58,499.1c-1.78-1.77-2.25-3.72-2.7-6.13,1.69,1.46,2.08,4.14,2.7,6.13Z" style="fill: #909090;"/>
  <path d="M8,505.1c-.38-1.93-2.73-3.73-2.45-6,1.45,1.59,1.72,4.09,2.45,6Z" style="fill: #909090;"/>
  <path d="M18.92,524.6c-1.59-1.64-3.15-5-3.59-7.22,2.15,1.71,3.16,4.65,3.59,7.22Z" style="fill: #909090;"/>
  <path d="M53.88,492.97c-3.23-2.79-4.73-6.72-5.63-10.85,2.92,2.95,4.86,6.75,5.63,10.85Z" style="fill: #909090;"/>
  <path d="M15.33,517.37c-3.98-3.16-6.37-7.33-7.33-12.27,4.15,3.02,6.37,7.36,7.33,12.27Z" style="fill: #909090;"/>
  <path d="M71.63,525.1l-.84,2.26c-6.39-8.19-11.11-18.33-14.21-28.26,7.2,7.15,8.34,18.23,15.05,26.01Z" style="fill: #909090;"/>
  <path d="M208.3,14.75c-1.26-1.56-1.26-4.85,0-6.4,1.46,2.06-.16,4.37,0,6.4Z" style="fill: #909090;"/>
  <path d="M774.33,481.16c-2-1.16-2.47-3.35-3.35-5.28,2.36.74,3.12,3.01,3.35,5.28Z" style="fill: #909090;"/>
  <path d="M208.29,6.25c-1.55-1.19-.75-3.41-1.23-5.03,1.26,0,2.99-.14,2.67,1.62-.2,1.1-.98,2.28-1.44,3.4Z" style="fill: #909090;"/>
  <path d="M109.09,1.18l-4.14-.02c.7-1.1,3.47-1.12,4.14.02Z" style="fill: #909090;"/>
  <path d="M208.31,53.61c-1.09-.65-1.08-3.33,0-3.99v3.99Z" style="fill: #909090;"/>
  <path d="M350.53,1171.83l2.66-3.64c-.86,1.17-1.99,2.36-2.66,3.64Z" style="fill: #fc11dd;"/>
  <path d="M776.62,488.53c-1.43-.07-1.46-2.08-1.67-3.09,1.18-.63,1.96-.18,1.72.96-.16.74-.09,1.48-.04,2.13Z" style="fill: #909090;"/>
  <path d="M724.59,593.56c-.42.97-.6,3.16-2.19,2.79.28-.56.46-1.12.67-1.65.26-.66.5-2,1.52-1.13Z" style="fill: #909090;"/>
  <path d="M193.87,1009.24c-1,.84-1.3-.49-1.54-1.14-.2-.55-.54-1.04-.72-1.64.8-.73.95-.3,1.22.34l1.04,2.44Z" style="fill: #909090;"/>
  <path d="M188.66,996.08c-.71.26-1.91.15-1.64-.81l.55-1.96c1.45.08.85,1.92,1.1,2.77Z" style="fill: #909090;"/>
  <path d="M570.69,742.07c.63.81.27.98-.4,1.23l-2.45.9c-.61-.81-.24-1.01.41-1.22.88-.29,1.62-.7,2.44-.91Z" style="fill: #909090;"/>
  <path d="M196.65,747.13c.34-.88-.37-2.61.99-2.92-.16,1.34-.84,2.11-.99,2.92Z" style="fill: #909090;"/>
  <path d="M140.1,749.53c-.33-1.26-.99-1.94-1.13-2.75,1.44.1.77,1.92,1.13,2.75Z" style="fill: #909090;"/>
  <path d="M326.53,1.14l-2.44,1.53c-.26-.49-.24-1.21-.16-1.95.05-.45.93-.78,1.61-.66.45.08.94.37.98,1.08Z" style="fill: #909090;"/>
  <path d="M187.45,991.2c-.83.29-1.75.16-1.59-.85.09-.57.73-1.45.62-2.08,1.26.35.79,2.02.96,2.93Z" style="fill: #909090;"/>
  <path d="M353.38,863.69c.34-.87-.39-2.63,1-2.9.07.7.45,1.45.57,2.07.2,1-.78,1.12-1.57.83Z" style="fill: #909090;"/>
  <path d="M611.6,367.98c-.63-.01-.93-.45-.99-.85-.15-.96.57-1.87,1.47-1.62,0,.82-.34,1.65-.48,2.46Z" style="fill: #909090;"/>
  <path d="M562.23,1.14l-1.78,1.3c-.98-.05-1.13-1.2-.79-1.73.44-.68.98-.82,1.64-.63.46.13.9.43.93,1.06Z" style="fill: #909090;"/>
  <path d="M237.6,1306.77c-1.03,1.02-1.36-.28-1.68-1.03-.21-.49-.38-1.14-.73-1.67l2.41,2.7Z" style="fill: #909090;"/>
  <path d="M237.54,1230.15l3.77-4.91c-1.07,1.77-2.33,3.42-3.77,4.91Z" style="fill: #909090;"/>
  <path d="M261.82,1196.22l-3.66-2.43,3.66,2.43Z" style="fill: #fc6653;"/>
  <path d="M525.47,1079.69c-.3-.47-.73-.99-1.14-1.36l1.14,1.36Z" style="fill: #fb137f;"/>
  <path d="M339.49,1317.54l1.44-1.17c-.51.34-.97.78-1.44,1.17Z" style="fill: #fc6653;"/>
  <path d="M449.16,341.23c-2.53,9.48-.14,25.15-3.79,35.34-7.33,20.46-24.1,35.77-46.46,41.49,11.59,5.17,24.06,9.19,31.79,18.75,14.1,17.43,21.88,39.06,15.13,60.02-1.39-1.33-.81-2.7-.47-5.61-4.79.57-10.53.94-14.53,3.23-.88.5,2.36,3.68,2.17,4.66s-2.45.34-3.32,2.07c4.61.35,8.24,2.13,9.78,6.05.98-1.01,2.01-1.42,3.39-2.62l-2.34,11.36-2.65,5.92c-4.61,1.86-7.58,6.07-11.69,8.79-1,.66-1.79,1.74-2.69,2.53-5.03,4.42-11.29,8.56-18.11,9.61-9.19,1.42-27.98-2.61-32.9,2.41-.47,0-1.03.13-1.49.02-4.88-1.22-9.69-2.74-14.24-4.91l-2.59-2.12c-3.41-.9-6.49-2.71-8.69-5.49-.34-4.03,2.25-6.73,3.83-11.69-5.85,0-9.96,1.86-14.6,1.15-5.09-3.32-7.79-9.2-10.27-15.19-8.63-20.81-4.04-41.59,4.37-61.39,3.22-4.38,5.89-9.17,9.55-13.37,2.63,1.45,5.26-.06,7.54-1.98,7.32-6.16,15.59-8.3,24.77-12.38-20.77-4.17-40.53-20.63-47.91-40.08-3.56-11.88-2.51-24.25-2.5-36.59,0,6.39.36-13.16,6.26-7.81.76.69,1.02-.48,1.12-1.11l.48-3.08c3.13-.38,5.12,3.14,9.02,1.95-2.05-1.74-4.72-2.14-6.23-4.94,2.83-2.12,6.39-2.27,9.02-4.79,1-.95-.65-2.63-1.09-3.81,2.64-1.43,5.1-1.28,8.08-2.35-1.55-1.44-3.32-2.26-4.07-4.1l-1.95,2.63c-1.01,1.36-.81-.42-1.57-2.54-2.75,1.05-4.81,3.19-7.74,5.66-1.12-.44-.56-1.58-.21-2.41,6.46-8.09,16.39-12.41,23.55-20.34,5.42-6,2.23-18.5,11.66-22.45-3.52,7.55-8.23,13.67-8.9,22.8,39.72-16.35,83.21,5.97,91.5,46.7ZM337.28,439.59c0-.7-.56-1.26-1.26-1.26s-1.26.56-1.26,1.26.56,1.26,1.26,1.26,1.26-.56,1.26-1.26Z" style="fill: url(#Degradado_sin_nombre_96);"/>
  <path d="M443.72,272.03l-.15,3.71c-9.87-12.31-21.95-20.73-37.38-21.6s-28.94,5.79-40,17.96c2.52-8.38,10.86-10.67,17.56-16.13-24.25-7.36-37.81,5.72-54.4,20.61,12.38-19.44,35.98-29.17,58.15-21.61,21.8-7.54,41.17,1.14,56.22,17.06Z" style="fill: #909090;"/>
  <path d="M320.22,341.23h-1.21c1.65-10.42,5.83-18.55,12.34-26.71-.35.83-.92,1.97.21,2.41,2.92-2.46,4.98-4.61,7.74-5.66.76,2.12.57,3.9,1.57,2.54l1.95-2.63c.75,1.83,2.52,2.65,4.07,4.1-2.98,1.07-5.44.92-8.08,2.35.44,1.18,2.09,2.86,1.09,3.81-2.63,2.52-6.19,2.67-9.02,4.79,1.51,2.8,4.18,3.2,6.23,4.94-3.9,1.19-5.89-2.33-9.02-1.95l-.48,3.08c-.1.63-.36,1.81-1.12,1.11-5.9-5.35-6.26,14.19-6.26,7.81Z" style="fill: #fc11dd;"/>
  <path d="M243.65,434.86l-2.41-1.48c10.92-8.68,10.44-26.23,5.55-37.5-2.64-6.08-1.45-11.32,2.97-14.57-1.2,3.96-3.37,8.93-1.37,13.39,8.95,19.88,1.84,25.58-4.74,40.16Z" style="fill: #909090;"/>
  <path d="M258.21,351.95c-3.68,12.9-1.08,23.92-8.45,29.35,2.48-8.18,5.03-16.15,5.02-25.28,0-2.1,2.49-3.25,3.43-4.08Z" style="fill: #909090;"/>
  <path d="M312.94,299.87c5.12,12.31,5.44,26.02-3.2,36.33-8.68,10.36-21.88,13.46-35.44,9.38-6.32-1.9-11.76,2.58-16.09,6.38,1.82-6.36,10.04-10.23,17.05-8.28,13,3.61,24.96,1.75,33.72-9.49,6.86-8.8,7.84-23.32,1.45-34.27l2.51-.04Z" style="fill: #909090;"/>
  <path d="M334.68,522.21c-.51.35-.56.74-.11,1.17l4.04,2.44,3.46,4.95c-1.44-3.38-7.63-2.85-9.35-5.15-17.64-23.54-21.53-56.08-3.95-79.98-8.41,19.8-13,40.59-4.37,61.39,2.48,5.99,5.19,11.87,10.27,15.19Z" style="fill: #909090;"/>
  <path d="M322.73,377.82l-3.76-2.75c-1.24-11.48-1.73-22.61.04-33.84h1.21c0,12.34-1.06,24.71,2.5,36.59Z" style="fill: #fc6653;"/>
  <path d="M325.44,288.06c-.87-1.6-.58-3.37-.6-5.07,3.62,1,1.42-4.53,4.79-5.02,1.25,4.64-3.54,6.91-4.19,10.09Z" style="fill: #909090;"/>
  <path d="M209.97,231.11l-1.69,2.21c-.75,0-.98-.49-1.03-.95-.08-.74.27-1.58.76-1.6.52-.02,1.63-.03,1.96.33Z" style="fill: #909090;"/>
  <path d="M445.67,231.1l-1.79,2.15c-.78.02-.91-.45-.94-.89-.05-.88.31-1.55.76-1.58.64-.04,1.63-.02,1.97.32Z" style="fill: #909090;"/>
  <path d="M467.25,299.94c-6.73,10.12-6.94,23.57-.17,33.36,15.35,22.19,36.23,4.11,49.63,13.53,11.12,7.81,4.4,22.6,12.23,34.41,3.6,5.43,4.46,9.75,1.59,16.86-3.53,8.74-4.68,26.49,4.79,33.81l-2.48,1.71c-.42-2.94-1.69-5.7-3.43-8.61-12.21-20.36,7.13-29.39-1.36-42.19-11.02-16.61-1.09-26.5-13.37-35.18-10.61-7.5-30.47,10.24-48.15-12.12-8.2-10.37-7.7-23.2-2.78-35.25l3.5-.31Z" style="fill: #909090;"/>
  <path d="M435.65,433.26c-1.04,1.24-2.31,2.58-2.22,4.23.25,4.59,32.13,22.43,7.08,78.48l2.34-11.36c1.93-1.68,2.9-4.19,2.98-7.77,6.75-20.96-1.04-42.6-15.13-60.02l4.95-3.55Z" style="fill: #909090;"/>
  <path d="M449.22,373.86l-3.86,2.72c3.65-10.19,1.27-25.87,3.79-35.34,2.19,10.78.44,21.57.06,32.62Z" style="fill: #fc6653;"/>
  <path d="M614.1,713.61c.33.05.84-.11,1.13.05,2.07,1.16,5.03,1.14,6.34,3.82-3.75.98-5.4-2.19-7.47-3.87Z" style="fill: #909090;"/>
  <path d="M612.02,713.87c-.85-.23-2.55.04-2.68-1.24l1.98-.5c.94-.24.98,1.07.71,1.74Z" style="fill: #909090;"/>
  <path d="M445.83,496.84c-.08,3.58-1.06,6.1-2.98,7.77-1.38,1.2-2.41,1.61-3.39,2.62-1.53-3.91-5.17-5.7-9.78-6.05.87-1.73,3.13-1.1,3.32-2.07s-3.05-4.15-2.17-4.66c4-2.28,9.74-2.65,14.53-3.23-.34,2.91-.92,4.29.47,5.61Z" style="fill: #fbaf15;"/>
  <path d="M405.36,542.83c-.53.51-2.24.95-2.21,1.8.03.93,1.67,1.38,2.18,1.95-8.71-2.36-17.84-1.34-26.79-1.34h-6.07c4.92-5.02,23.71-.99,32.9-2.41Z" style="fill: #fc6653;"/>
  <path d="M345.45,532.75c-.68-.85-2.96-1-3.38-1.99l-3.46-4.95c-1.23-1-2.6-1.79-4.04-2.44-.45-.43-.4-.82.11-1.17,4.64.71,8.75-1.15,14.6-1.15-1.58,4.97-4.16,7.66-3.83,11.69Z" style="fill: #f82c17;"/>
  <path d="M378.54,545.24c-2.38,1.27-5.05,1.51-7.64,2.07l.07-2.05c.46.11,1.02-.02,1.49-.02h6.07Z" style="fill: #909090;"/>
  <circle cx="336.02" cy="439.59" r="1.26" style="fill: #fbef45;"/>
  <path d="M423.48,533.22c.9-.79,1.69-1.87,2.69-2.53.6,1.75-1.88,1.73-2.69,2.53Z" style="fill: #fc6653;"/>
  <path d="M356.73,540.35c-.98-.47-1.64-1.59-2.59-2.12l2.59,2.12Z" style="fill: #fc6653;"/>
  <path d="M337.29,697l-2.58,2.52c-.21-.94-.81-2.3.55-2.39l2.03-.13Z" style="fill: #909090;"/>
  <path d="M338.61,525.81l-4.04-2.44c1.44.64,2.81,1.44,4.04,2.44Z" style="fill: #fc6653;"/>
</svg>