<?xml version="1.0" encoding="UTF-8"?>
<svg id="Capa_1" data-name="Capa 1" xmlns="http://www.w3.org/2000/svg" viewBox="0 0 1920 220.02">
  <path d="M1227.27,144.05c-5.83,24.18-19.99,44.34-42.67,55.5-18.49,10.66-38.42,12.62-60.56,15.5l-342.92.26V5.02s324.31-.22,324.31-.22c24.67.61,47.78,2.72,69.58,11.36,26.91,10.98,45.45,31.35,52.4,59.68,5.4,22.66,6.1,46.05-.14,68.21ZM1178.14,106.11c.21-23.91-13.43-42.22-34.03-50.24-15.37-5.73-31.02-7.05-47.96-6.89l-263.72.06-.03,122.15,268.45.02,24.8-1.99c32.46-2.9,56.13-28,52.49-63.12Z"/>
  <rect x="1279.7" y="4.9" width="51.36" height="210.6"/>
  <path d="M1611.45,205.28c-18.46,10.02-35.83,12.22-54.38,14.74l-74.98-.39c-30.69-2.6-58.36-11.64-79.33-33.7-14.31-17.64-21.78-39.5-22.69-62.09-2.71-28.63,1.4-56.27,16.67-81.51,17.96-24.94,46.43-37.47,76.89-40.39l69.44-1.93c18.63.26,36.7,2.23,53.22,8.6,23.85,6.95,42.44,22.31,53.67,44.73,15.67,36.57,15.79,77.08.11,113.61-8.66,15.83-19.65,29.83-38.6,38.33ZM1604.89,135.97c4.03-17.08,4.22-35.52.45-51.97-8.02-19.67-22.58-31.68-42.93-37.64-26.99-3.76-54.54-4.52-81.44-.29-29.87,6.54-50.07,30.97-48.38,61.77-3.34,32.35,16.87,59.23,48.33,66.4,25.72,3.77,51.72,3.8,77.32.12,21.57-4.5,38.71-16.93,46.66-38.38Z"/>
  <g>
    <path d="M1920,4.94v210.16h-210.35V4.94h210.35ZM1802.6,154.51c1.98-7.47,1.58-11.3,1.16-17.65l-46.79-1.18c4-7.59,10.33-9.89,17.61-12.57,9.45-3.33,17.9-6.51,24.25-12.99,7.09-12.71,8.62-27.33-1.74-39.6-14.73-8.54-31.15-9.02-47.16-4.63-13,6.43-19.51,19.88-15.26,30.39l19.7-1.76c1.88-8.91,7.2-12.19,12.03-13.79,7.15.47,12.05.84,16.54,9.6-1.88,9.32-10.35,14.44-19.49,16.56-24.05,6.12-36,26.51-29.68,48.01l68.83-.4ZM1832.17,151.89c16.76,7.37,34.9,6.54,51.9.03,9.4-5.34,14.67-14.81,13.41-23.36,1.06-9.49-4.36-16.81-10.15-23.65,11.82-14.12,7.57-28.78-3.06-36.71-17.49-7.22-37.17-7.07-54.81,1.73-9.62,11.58-9.22,26.41.42,36.11-7.77,5.97-9.2,11.45-11.42,19.62-.45,10.22,4.63,20.71,13.71,26.23Z"/>
    <path d="M1872.84,136c-10.35,4.41-19.24,4.33-29.29-.27-4.12-5.89-3.32-11.71,1.51-16.06,1.43-1.62,6.32-5.22,13.08-3.26,6.7-1.82,12.03.65,14.39,3.16,3.43,4.28,4.61,10.08.31,16.42Z"/>
    <path d="M1871.2,83.93c3.62,4.85,2.33,9.26-.03,12.27-1.86,2.24-6.39,5.66-13.09,3.86-6.28,1.7-10.3-.98-12.8-4.1-3.43-4.59-2.44-11.21,4.69-14.8,6.29-2.43,13.5-2.58,21.24,2.77Z"/>
  </g>
  <g>
    <path d="M450.79,214.12l-58.8.88-37.39-58.36-304.01-.04.3,58.38L.01,214.57V5.11s362.35-.19,362.35-.19c24.53.54,45.85,6.99,63.59,22.12,28.47,30.45,28.02,78.53-2.06,108.08-5.39,4.01-9.32,6.29-16.62,10.15l43.51,68.86ZM392.63,79.93c1.42-13.61-5.74-24.97-17.91-30.67l-324.1-.09-.08,63.69,316.74.07c17.63-1.63,27.66-16.09,25.34-33Z"/>
    <path d="M675.07,179.88l-133.73.12-17.67,35.44-52.03-1.75L578.94,5.28l56.48.2,110.88,208.42-53.57,1.21-17.66-35.24ZM652.18,138.17l-40.61-77.8c1.99-1.95-6.81-2.38-6.98.54l-39.66,76.63,33,1.61,54.26-.98Z"/>
  </g>
</svg>