<?xml version="1.0" encoding="UTF-8"?>
<svg id="Capa_1" data-name="Capa 1" xmlns="http://www.w3.org/2000/svg" viewBox="0 0 655.95 1927">
  <path d="M342.28,1367.3c-.33-24.71-1.3-64.34-4.01-88.27.16-28.19-1.63-77.96-3.24-105.72.05-2.6-6.93-.72-8.77.74-2.74,2.19-2.88,6.01-3.26,9.95-4.76,20.16-3.25,159.98-3.66,183.7-3.81,5.17-2.45,10.54-3.94,16.15-9.37,24.14-10.02,63.43-8.69,90.39.14,7.53,2.76,14.1,4.92,20.91,1.99,6.25-1.42,13.63.99,19.61,6.48,24.23,7.23,51.67,1.76,76.29-5.69,22.64-8.6,44.65-10.14,67.79-3.6,27.24-10.74,92.35-8.92,119.18-.13,16.92,12.55,26.8,8.82,64.22-.53,5.3-7.84-1.68-4.7,36.44,6.05,24.6-3.7,28.25-25.72,30.87-6.82,1.71-11.15,9.91-19.17,9.96l-72.96.43c-3.39.02-3.21-4.46-3.97-6.08-5.18-11.2-.11-19.46,9.52-25.26,7.66-4.61,14.08-12.37,20.48-18.78,5.48-5.48,9.22-12.5,13.48-18.7,2.95-4.29.87-10.05,1.99-14.87,13.99-53.58.32-107.18-8.56-160.03.02.28-13.59-58.67-13.18-52.02l-.63-10.43c.36,5.93-13.86-41.83-14.13-71.62l-.53-57.42c.09,9.41,9.1-50.56,6.86-41.86,8.57-14.18,3.57-114.16.72-114.68,2.05-6.13-1.83-12.22-2.82-17.8-2.78-20.72-10.2-37.79-17.38-57.79-8.66-24.55-25.08-83.47-27.88-105.45,2.53-6.43-3.18-11.53-3.12-16.98-.2-19.98-3.28-39.97-7.09-59.27-1.56-26.83-1.19-53.28-.22-79.93,3.37-37.96,13.4-91.43,18.42-125.16,4.89-24.47,19.49-62.74,21.49-87.12-1.3-25.02,3.79-68.32.32-92.7-1.56-6.88,1.57-14.72-.74-21.46-1.99-5.8-3.86-10.67-3.28-17.17.37-4.17-3.46-7.87-3.42-12.16.07-8.07-1.79-38.03-8.19-40.39-5.71.24-14.71,25.51-15.78,30.91-3.47,12.77-10.17,26.48-12.51,39.51.24,32.28-5.31,75.84-17.59,107.66-5.93,22.7-16.86,38.45-29.15,59.27-11.55,23.04-29.94,56.38-33.81,81.94-2.98,14.57-1.46,25.54.25,39.59,1.86,10.21-2.05,21.92,1.12,31.59,2.26,6.9-1.71,12.1-1.27,17.24.55,6.44,2.53,9.86.43,17.34-1.27,4.5,4.04,11.94,1.8,18.18-1.14,3.18,1.36,8.89,3.13,11.19,5.12,10.32,7.56,20.59,8.32,31.99.32,8.04,5.76,27.29-4.09,29.46-8.69,1.92-5.38-7.58-25.99-19.29-4.39-2.49-7.27-9.19-7.57-14.04-.54-8.65-5.03-14.41-7.89-21.74-2.21-5.69-2.42-11.47-5.12-17.28-4.27-9-11.46-21.46-8.76-31.83-2.46-30.56-2.04-95.57-.24-126.09-1.15-5.59,1.42-10.31,3.21-15.18,1.14-17.61,1.4-35.86,5.24-53.38,5.39-12.27,1.06-26.48,4.63-39.6,2.6-26.34,3.22-59,8.38-84.9,5.89-29.8,14.41-43.08,22.18-74.53,3.52-10.58,3.67-25.61,8.1-35.97,3.26-5.94,3.24-12.48,4.64-18.77,2.16-9.7,4.97-15.07,7.37-27.88,1.81-9.68,8.53-26,6.53-32.66-2.11-7.03,3.03-11.94,3.14-17.98.56-8.56-.19-91.2,5.02-98.02,9.56-41.98,15.78-27.81,28.23-48.65,3.6-6.02,78.5-29.24,77.15-28.48,0,0,19.17-10.88,19.17-10.88,38.6-18.8,66.8-19.24,63.56-67.06.16-10.56-.98-18.43-6.36-27.12-4.34-7-4.45-24.75-7.54-25.62-7.37-2.06-9.78-7.21-13.62-12.77-10.61-15.35-5.96-20.75,1.14-35.97-3.09-5.2-6.08-13.12-1.33-17.82,2.14-2.12,8.45-.9,8.7-5.29,1.72-30.64-5.86-48.03,16.73-69.44,42.67-51.09,125.98-31.15,138.62,33.58,0,0,.37,34.33.37,34.33.08,7.44,8.79,4.29,11.65,7.33,3.91,4.15-1.78,17.17-.41,21.44,6.19,15.5,6.14,22.96-3.63,36.45-6.84,11.43-19.43,4.21-18.78,15.44.46,7.88-4.04,14.28-4.94,21.54-1.65,13.32-.48,26.79-.37,40.18,7.63,35.75,68.49,49.08,95.78,64.81,13.15,6.1,37.17,13.28,49.78,19.8,59.84,27.88,47.22,99.53,48.68,152.88.03,3.6,4.37,6.68,3.69,10.68-1.88,18.36,2.87,36.47,6.13,54.33,3.13,16.35,7.32,34.65,12.8,50.21,8.76,24.55,5.85,32.01,20.94,62.37,5.17,10.4,4.45,22.66,7.26,33.62,3.97,19.58,3.47,38.76,4.52,58.66.01,12.93,5.01,34.19,3.22,47.11-1.43,6.25,3.11,10.73,3.22,16.23-.59,12.13,2.01,57.85,2.47,69.82,2.47,32.85,2.72,65.68,1.33,98.85-.33,6.57-5.45,12.16-3.23,19.73,2.91,9.88-9.94,40.92-9.9,40.71l-3.73,20.52c-1.61.4-30.51,65.42-41.14,31.5-1.77-4.67.47-11.52,3.64-15.59,5.47-10.34,20.47-21.83,10.86-33.77l.93-9.02c-12.68-12.21,6.88-24.42-1.88-22.95-6.65,1.11-6.39,8.29-17.93,12.1-16.33,5.43-13.86-17.21-9.41-22.96,9.84-11.65,16.03-26.95,15.07-42.48-2.4-15.02,11.23-9.97,11.2-27.53,1.99-18.55-4.58-35.43-8.79-52.84-.37-6.47-1.98-10.78-4.18-16.44-7.95-21.49-17.95-44.99-27.97-65.46-15.39-31.67-34.72-101.22-31.37-130.05-5.39-22.4-13.79-51.65-26.51-71.24-2.06-3.51-7.17-20.44-11.68-19.9-.7.08-1.69.9-1.84,2.02,0,0-5.24,38.32-5.24,38.32-.48,3.48-3.93,7.3-2.76,11.04,2.07,6.61-2.94,12.2-2.85,17.89.12,7.39-3.15,12.93-3.74,19.48-2.4,24.2.05,53.07,1.5,77.51.57,9.39,1.76,18.21,1.69,27.83-.11,15.54,6.62,29.78,10.31,44.29,3.92,16.97,8.23,32.6,10.49,49.75,0,0,3.69,13.76,3.69,13.76,0,0,1.78,26.91,1.78,26.91,2.63,11.55,6.36,36.4,7.65,48.82.73,5.63,5.06,11.62,2.75,17.98-2.62,7.21,2.92,12.71,3.17,18.88.26,32.56,3.6,65.64-3.48,96.91.56,61.13-16.44,123.45-39.65,180.07-2.58,6.68-2.14,13.68-5.95,20.12-2.23,3.78-.96,9.1-2.7,13.1-2.65,6.1-4.08,12.05-3.21,18.88-.64,24.74-3.02,83.18.31,104.85,12.89,37.55,13.72,79.9,12.45,119.07-.17,14.54-5.99,29.68-6.3,35.29-1.12,15.38-9,28.99-10.55,44.24-3.48,9.83-8.55,28.48-9.59,38.9-2.63,11.45-10.77,51.16-12.97,62.59-.96,5.72-4.81,11.51-2.8,17.89,2.16,6.87-2.5,11.95-3.09,17.93-3.03,30.88,2.26,47.91,1.28,70.15-2.68,61.19,40.81,54.56,37.01,77.81-2.85,17.45-12.37,7.45-40.82,12.67-5.32.98-11.51-1.07-16.43,1.11-15.35,4.15-30.65-4.97-40.19-16.71-3.24-4.04-11.5-6.7-11.49-13.1.03-13.33-1.07-25.67-5.08-38.38-15.71-49.77,12.84-52.23,10.64-99.44-.27-42-7.5-85.94-14.11-126.91-.77-5.05-4.29-10.03-2.77-15.42,1.83-6.5-3.18-11.29-3.23-17.15l-.52-72.42c-.02-3.07,3.89-5.95,3.6-8.76-1.07-10.26,2.83-18.51,4.9-27.98,2.73-12.49,3.62-48.24,1.7-61.02-1.57-10.43-9.1-19.65-9.73-30.27-.43-7.15-7.16-26.1-7.19-27.61Z" style="fill: none; stroke: #000; stroke-miterlimit: 10; stroke-width: 7px;"/>
</svg>