<?xml version="1.0" encoding="UTF-8"?>
<svg id="Capa_1" data-name="Capa 1" xmlns="http://www.w3.org/2000/svg" viewBox="0 0 1932 1932">
  <g>
    <path d="M287.18,287.18c24.59-24.35,50.24-47.39,77.09-69.23-159.91,222.32-197.37,510.14-172.35,776.97,9.1,97.07,27.21,192.98,52.2,287.18-34.53-306.22,21.33-619.51,133.66-904.93,33.32-84.67,71.95-167.13,115.59-246.96,29.87-16.74,60.41-31.95,91.77-45.7-54.63,127.23-100.11,258.31-136.2,391.99-59.57,220.66-94.04,448.88-94.5,677.66-.43,215.94,28.07,440.04,120.9,637.14-33.41-20.13-65.49-42-96.45-65.71-79.35-105.69-146.71-220.24-198.5-341.91C32.44,1036.13,2.01,576.05,287.18,287.18Z"/>
    <path d="M600.54,78.01c30.88-12.54,62.21-23.57,94.14-33.13-32.33,134.18-55.12,270.53-71,407.6-27.41,236.5-34.89,475.47-24.66,713.29,10.42,242.41,38.78,485.25,95.67,721.35-31.93-9.57-63.26-20.59-94.14-33.13-76.66-221.69-116.37-455.65-131.04-689.37-14.58-232.23-4.25-466.71,33.78-696.34,21.93-132.42,53.38-263.35,97.26-390.26Z"/>
    <path d="M739.62,32.85c30-7.09,60.18-12.86,90.68-17.33,7.76,163.77,29.07,326.77,53.11,488.84,28.47,191.92,61.35,383.2,93.41,574.55.22-357.62-.47-715.25-2.8-1072.87,34.19.44,68.2,2.5,102.19,6.22,12.79,139.92,21.71,280.18,27.97,420.55,22.04,494.8,17.15,993.52-27.97,1486.94-31.33,3.43-62.68,5.46-94.19,6.13-11.62-76.33-24.71-152.43-38.38-228.43-50.57-281.16-107.09-561.13-151.04-843.46-3.51,354.73,7.77,710.66,45.44,1063.56-33.13-4.58-65.88-10.7-98.42-18.39-47.11-239.93-70.4-484.48-79.09-728.68-8.63-242.67-2.4-486.17,20.68-727.92,13.11-137.37,31.82-274.27,58.41-409.7Z"/>
    <path d="M1319.96,1227.68c-9.53-104.04-22.37-207.78-37.93-311.09-45.79-304.02-116.19-603.63-188.63-902.2,39.32,5.41,78.08,13.01,116.52,22.88,70.31,215.5,130.18,434.53,174.16,656.97,13.74-202.46,13.92-410.71-35.24-608.86,33.46,14.75,65.96,31.18,97.68,49.36,27.61,67.84,45.41,139.54,57.12,211.74,46.75,288.14,7.21,590.26-54.64,872.87-17.33,216.18-55.14,431.68-124.55,637.5-31.01,12.31-62.45,23.09-94.48,32.41,50.66-217.04,77.53-439.23,89.98-661.57Z"/>
    <path d="M1460.79,143.16c27.97,17.05,55.04,35.3,81.32,54.85,54.46,78.89,99.31,163.93,134.22,253.2,120.81,308.87,125.82,661.19,20.01,974.89,46.49-14.79,92.38-31.17,137.62-49.42-47.82,99.57-111.45,189.66-189.15,268.15-55.7,55.13-117.12,103.22-184.03,144.01,205.33-386.91,241.47-865.46,135.89-1287.22-31.12-124.32-75.78-245.18-135.89-358.45Z"/>
  </g>
  <circle cx="966" cy="966" r="960" style="fill: none; stroke: #000; stroke-miterlimit: 10; stroke-width: 12px;"/>
</svg>